<svg width="24" height="24" viewBox="0 0 24 24" fill="none" xmlns="http://www.w3.org/2000/svg">
<path d="M12 13C13.933 13 15.5 11.433 15.5 9.5C15.5 7.567 13.933 6 12 6C10.067 6 8.5 7.567 8.5 9.5C8.5 11.433 10.067 13 12 13ZM12 11C11.1716 11 10.5 10.3284 10.5 9.5C10.5 8.67157 11.1716 8 12 8C12.8284 8 13.5 8.67157 13.5 9.5C13.5 10.3284 12.8284 11 12 11Z" fill="black"/>
<path d="M12 22C17.5228 22 22 17.5228 22 12C22 6.47715 17.5228 2 12 2C6.47715 2 2 6.47715 2 12C2 17.5228 6.47715 22 12 22ZM18.3705 16.8398C17.2669 15.4593 14.8295 14.5 12 14.5C9.17049 14.5 6.73308 15.4593 5.62952 16.8398C4.60701 15.496 4 13.8189 4 12C4 7.58172 7.58172 4 12 4C16.4183 4 20 7.58172 20 12C20 13.8189 19.393 15.496 18.3705 16.8398ZM17.0887 18.1732C15.7059 19.3144 13.933 20 12 20C10.1359 20 8.42074 19.3624 7.06064 18.2935C7.15836 18.0921 7.40909 17.77 8.04253 17.4081C8.95563 16.8863 10.3506 16.5 12 16.5C13.6494 16.5 15.0444 16.8863 15.9575 17.4081C16.5909 17.77 16.8416 18.0921 16.9394 18.2935C16.9896 18.254 17.0394 18.2139 17.0887 18.1732ZM6.95562 18.1515C6.94771 18.1317 6.94553 18.1228 6.94553 18.1228C6.94553 18.1228 6.95009 18.1329 6.95562 18.1515Z" fill="black"/>
</svg>
