<svg width="24" height="24" viewBox="0 0 24 24" fill="none" xmlns="http://www.w3.org/2000/svg">
<path d="M12 13C13.933 13 15.5 11.433 15.5 9.5C15.5 7.567 13.933 6 12 6C10.067 6 8.5 7.567 8.5 9.5C8.5 11.433 10.067 13 12 13Z" fill="black"/>
<path d="M12 22C17.5228 22 22 17.5228 22 12C22 6.47715 17.5228 2 12 2C6.47715 2 2 6.47715 2 12C2 17.5228 6.47715 22 12 22ZM12 14.5C9.17049 14.5 6.73308 15.4593 5.62952 16.8398C4.60701 15.496 4 13.8189 4 12C4 7.58172 7.58172 4 12 4C16.4183 4 20 7.58172 20 12C20 13.8189 19.393 15.496 18.3705 16.8398C17.2669 15.4593 14.8295 14.5 12 14.5Z" fill="black"/>
</svg>
