<svg width="24" height="24" viewBox="0 0 24 24" fill="none" xmlns="http://www.w3.org/2000/svg">
<path d="M4.92888 17.6568C4.53836 18.0473 4.53836 18.6805 4.92888 19.071C5.3194 19.4615 5.95257 19.4615 6.34309 19.071L11.9999 13.4142L17.6568 19.0711C18.0474 19.4616 18.6805 19.4616 19.071 19.0711C19.4616 18.6805 19.4616 18.0474 19.071 17.6568L13.4142 12L19.071 6.34309C19.4615 5.95257 19.4615 5.3194 19.071 4.92888C18.6805 4.53836 18.0473 4.53836 17.6568 4.92888L11.9999 10.5857L6.34313 4.92893C5.9526 4.5384 5.31944 4.5384 4.92891 4.92893C4.53839 5.31945 4.53839 5.95261 4.92891 6.34314L10.5857 12L4.92888 17.6568Z" fill="black" fill-opacity="0.88"/>
</svg>
